<?xml version="1.0" encoding="UTF-8" standalone="no"?>
<svg
   xmlns:sketch="http://www.bohemiancoding.com/sketch/ns"
   xmlns:dc="http://purl.org/dc/elements/1.1/"
   xmlns:cc="http://creativecommons.org/ns#"
   xmlns:rdf="http://www.w3.org/1999/02/22-rdf-syntax-ns#"
   xmlns:svg="http://www.w3.org/2000/svg"
   xmlns="http://www.w3.org/2000/svg"
   xmlns:xlink="http://www.w3.org/1999/xlink"
   xmlns:sodipodi="http://sodipodi.sourceforge.net/DTD/sodipodi-0.dtd"
   xmlns:inkscape="http://www.inkscape.org/namespaces/inkscape"
   width="128px"
   height="128px"
   viewBox="0 0 128 128"
   version="1.1"
   id="svg2"
   inkscape:version="0.91 r13725"
   sodipodi:docname="icon.svg">
  <metadata
     id="metadata14">
    <rdf:RDF>
      <cc:Work
         rdf:about="">
        <dc:format>image/svg+xml</dc:format>
        <dc:type
           rdf:resource="http://purl.org/dc/dcmitype/StillImage" />
      </cc:Work>
    </rdf:RDF>
  </metadata>
  <sodipodi:namedview
     pagecolor="#ffffff"
     bordercolor="#666666"
     borderopacity="1"
     objecttolerance="10"
     gridtolerance="10"
     guidetolerance="10"
     inkscape:pageopacity="0"
     inkscape:pageshadow="2"
     inkscape:window-width="1142"
     inkscape:window-height="849"
     id="namedview12"
     showgrid="false"
     inkscape:zoom="1.84375"
     inkscape:cx="-110.64407"
     inkscape:cy="64"
     inkscape:window-x="1570"
     inkscape:window-y="233"
     inkscape:window-maximized="0"
     inkscape:current-layer="svg2" />
  <!-- Generator: Sketch 3.0.2 (7799) - http://www.bohemiancoding.com/sketch -->
  <title
     id="title4">empty</title>
  <description
     id="description6">Created with Sketch.</description>
  <defs
     id="defs8">
    <linearGradient
       id="linearGradient3761">
      <stop
         style="stop-color:#4e748b;stop-opacity:1;"
         offset="0"
         id="stop3763" />
      <stop
         style="stop-color:#393e3f;stop-opacity:1;"
         offset="1"
         id="stop3765" />
    </linearGradient>
    <linearGradient
       gradientTransform="matrix(1.1111111,0,0,1.1111111,-273.77777,-78.523532)"
       inkscape:collect="always"
       xlink:href="#linearGradient3761-4"
       id="linearGradient3767-1"
       x1="129.66949"
       y1="65.8983"
       x2="129.66949"
       y2="188.59828"
       gradientUnits="userSpaceOnUse" />
    <linearGradient
       id="linearGradient3761-4">
      <stop
         id="stop4176"
         offset="0"
         style="stop-color:#f3bb05;stop-opacity:1" />
      <stop
         id="stop4178"
         offset="1"
         style="stop-color:#fde493;stop-opacity:1" />
    </linearGradient>
  </defs>
  <g
     id="Page-1"
     sketch:type="MSPage"
     transform="matrix(0.9,0,0,0.9,181.04407,6.4)"
     style="fill:none;stroke:none">
    <circle
       r="70.207153"
       cy="64"
       cx="-130.04897"
       style="fill:url(#linearGradient3767-1);fill-opacity:1;fill-rule:evenodd;stroke:none"
       id="path2991-7" />
    <path
       style="opacity:1;fill:#ffffff;fill-opacity:1;stroke:none;stroke-width:0.004;stroke-linecap:butt;stroke-miterlimit:4;stroke-dasharray:none;stroke-dashoffset:0;stroke-opacity:1"
       d="m -130.05016,23.79706 c -19.5778,0 -39.15433,0.75589 -40.6706,2.272168 -3.0045,3.004492 -3.0045,60.500789 0,63.505289 1.29335,1.293356 7.56379,2.142329 15.84266,2.142329 13.56353,0 13.74958,0.06162 18.46347,6.241847 2.61916,3.433927 5.42951,6.244257 6.24425,6.244257 0.81474,0 3.62508,-2.81033 6.24426,-6.244257 4.72025,-6.188579 4.88197,-6.241848 18.58368,-6.241848 8.372941,0 14.668663,-0.845724 15.965293,-2.142328 3.00447,-3.0045 3.00447,-60.500798 0,-63.50529 -1.51627,-1.516278 -21.095223,-2.272168 -40.673013,-2.272168 z m 0,16.186491 c 21.00982,0 24.97461,0.425064 24.97461,2.676109 0,2.251051 -3.96479,2.676109 -24.97461,2.676109 -21.0098,0 -24.97221,-0.425064 -24.97221,-2.676109 0,-2.251056 3.96241,-2.676109 24.97221,-2.676109 z m 0,14.272579 c 21.00982,0 24.97461,0.425065 24.97461,2.676109 0,2.251052 -3.96479,2.673705 -24.97461,2.673705 -21.0098,0 -24.97221,-0.422659 -24.97221,-2.673705 0,-2.251056 3.96241,-2.676109 24.97221,-2.676109 z m 0,14.270177 c 21.00982,0 24.97461,0.425064 24.97461,2.676109 0,2.251055 -3.96479,2.67611 -24.97461,2.67611 -21.0098,0 -24.97221,-0.425067 -24.97221,-2.67611 0,-2.251055 3.96241,-2.676109 24.97221,-2.676109 z"
       id="rect4219"
       inkscape:connector-curvature="0"
       sodipodi:nodetypes="ssssssssssssssssssssssssss" />
  </g>
</svg>
